:SAMPLES-PER-SECOND 24
:FULLY-SPECIFIED
:DEGREES
165
root  -2.09988 34.8067 23.7231 -175.788 59.904 -172.685
RightUpLeg  -3.9042 -9.80723 -17.7227
RightLeg  44.6595 14.6796 14.7553
RightFoot  -30.431 1.90649 12.5088
RightToes  -1.74623e-010 0 -2.59999e-017
Spine  7.48465 0.428884 4.23877
Spine1  19.8802 1.37926 -2.89209
HEad  -38.6925 45.7905 -39.2379
LeftShoulder1  2.15701 -4.14707 -21.8593
LeftArm  13.2923 -8.00296 -38.095
LeftForeArm  17.0057 -37.344 -7.48649
LeftHand  -1.09186 0.143265 24.0459
RightShoulder  2.33896 4.52637 22.9516
RightArm  18.7371 39.4919 63.8617
RightForeArm  144.159 63.0478 158.015
RightHand  -0.218415 -3.56118 -13.1743
LeftUpLeg  -32.3676 16.5096 22.0327
LeftLeg  44.6468 -6.99649 -6.97658
LeftFoot  0.0787621 1.4254 -14.2106
LeftToes  -6.27559e-011 -2.10356e-011 8.24929e-012
166
root  -1.83932 35.4822 23.7949 -178.211 62.917 -174.702
RightUpLeg  -2.71616 -7.32696 -18.3458
RightLeg  41.2734 15.6636 13.9942
RightFoot  -27.7001 1.70165 13.0743
RightToes  -1.74623e-010 0 -2.59999e-017
Spine  7.22684 0.405874 1.60078
Spine1  19.6118 0.615252 -1.66957
HEad  -38.9509 48.7312 -40.8471
LeftShoulder1  2.30462 -4.04195 -24.3357
LeftArm  11.0293 -1.24988 -38.739
LeftForeArm  18.9447 -39.6795 -8.08332
LeftHand  -0.985476 0.755519 24.5544
RightShoulder  2.47908 4.66464 24.2451
RightArm  18.3312 28.3758 61.0325
RightForeArm  149.903 63.3155 158.368
RightHand  -0.046413 -5.11155 -12.5698
LeftUpLeg  -26.7557 14.9193 21.6436
LeftLeg  38.5718 -3.4007 -2.54809
LeftFoot  0.878087 1.69068 -15.7467
LeftToes  -6.27559e-011 -2.10356e-011 8.24929e-012
167
root  -1.48985 37.0984 23.4841 179.286 64.0189 -177.651
RightUpLeg  0.51084 -5.297 -18.7809
RightLeg  32.5131 15.5451 10.221
RightFoot  -19.3779 0.895219 14.5527
RightToes  -1.74623e-010 0 -2.59999e-017
Spine  6.22984 0.974652 0.973928
Spine1  18.0932 1.27695 -1.80097
HEad  -34.0122 49.9169 -37.2702
LeftShoulder1  2.25166 -3.98668 -23.8301
LeftArm  11.8802 6.14058 -42.4241
LeftForeArm  20.6334 -44.9488 -9.74127
LeftHand  -0.88701 1.25461 24.7361
RightShoulder  2.77839 4.97312 26.7806
RightArm  17.6834 13.451 55.5003
RightForeArm  153.745 60.6427 160.872
RightHand  0.0152714 -5.77599 -10.778
LeftUpLeg  -21.1017 14.6121 19.7095
LeftLeg  29.3736 -2.35521 -1.08275
LeftFoot  8.921 2.73619 -15.5393
LeftToes  -6.27559e-011 -2.10356e-011 8.24929e-012
168
root  -1.2456 38.9549 23.0597 177.535 64.6914 179.859
RightUpLeg  2.44793 -4.29499 -19.2688
RightLeg  24.7293 15.1038 7.26096
RightFoot  -6.12256 -0.859924 17.6156
RightToes  -1.74623e-010 0 -2.59999e-017
Spine  4.45501 1.90871 2.03607
Spine1  17.7182 2.8584 -3.27718
HEad  -28.1368 49.7861 -32.6786
LeftShoulder1  2.17865 -3.92025 -23.077
LeftArm  12.7839 11.3369 -45.2359
LeftForeArm  27.2454 -50.8224 -11.6611
LeftHand  -0.829236 0.902942 21.3913
RightShoulder  3.01403 5.29461 28.315
RightArm  17.176 2.62372 50.4812
RightForeArm  153.416 57.451 162.979
RightHand  -0.0117649 -5.53094 -8.1867
LeftUpLeg  -16.1943 15.1251 17.7498
LeftLeg  19.5389 -2.14041 -0.60336
LeftFoot  19.8336 3.82851 -14.1205
LeftToes  -6.27559e-011 -2.10356e-011 8.24929e-012
169
root  -1.12887 40.2608 22.5921 175.741 65.3484 177.862
RightUpLeg  2.84695 -6.16085 -20.3102
RightLeg  20.9485 13.4173 5.41674
RightFoot  5.09115 -2.74764 19.2229
RightToes  -1.74623e-010 0 -2.59999e-017
Spine  3.51826 2.67294 2.42336
Spine1  16.991 3.85006 -3.72412
HEad  -23.8759 49.6974 -28.9294
LeftShoulder1  2.17056 -3.95915 -22.8017
LeftArm  11.6751 16.2352 -46.461
LeftForeArm  36.0604 -57.8225 -14.7244
LeftHand  -0.727624 0.332071 16.7112
RightShoulder  2.97651 5.32957 27.7324
RightArm  16.8176 -2.58797 47.5318
RightForeArm  152.047 54.9028 164.327
RightHand  -0.0399149 -5.1214 -7.98196
LeftUpLeg  -12.5504 11.7999 16.2415
LeftLeg  14.8724 -2.08246 -0.594585
LeftFoot  21.8863 3.53034 -12.2231
LeftToes  -6.27559e-011 -2.10356e-011 8.24929e-012
170
root  -1.13774 40.7932 22.2568 177.214 65.9084 178.75
RightUpLeg  1.4892 -7.62723 -19.2615
RightLeg  20.4523 8.66029 3.35061
RightFoot  8.17515 -2.85355 16.8201
RightToes  -1.74623e-010 0 -2.59999e-017
Spine  1.80627 2.91975 3.20404
Spine1  16.7923 4.17628 -3.97463
HEad  -22.6124 49.7345 -27.1092
LeftShoulder1  2.053 -4.00956 -20.9326
LeftArm  11.4807 19.5614 -47.9698
LeftForeArm  39.2496 -64.0712 -19.4111
LeftHand  -0.598977 0.7296 14.9367
RightShoulder  2.75208 5.0516 26.1445
RightArm  15.3917 -2.69595 46.2973
RightForeArm  149.919 53.0222 165.139
RightHand  -0.0708124 -4.76058 -9.69633
LeftUpLeg  -12.9273 9.71662 15.6864
LeftLeg  19.5098 -5.39088 -1.84507
LeftFoot  18.2494 3.0434 -11.9215
LeftToes  -6.27559e-011 -2.10356e-011 8.24929e-012
171
root  -1.23368 40.7241 22.0033 179.516 66.5789 -179.221
RightUpLeg  -0.32132 -7.48105 -17.547
RightLeg  22.379 5.89773 2.45208
RightFoot  7.02113 -2.31305 14.5406
RightToes  -1.74623e-010 0 -2.59999e-017
Spine  -0.155207 2.86402 5.04486
Spine1  17.9586 4.52169 -5.13017
HEad  -22.9497 49.9563 -26.738
LeftShoulder1  1.84916 -3.95722 -18.2027
LeftArm  12.4046 19.4567 -48.8844
LeftForeArm  39.6111 -68.1994 -24.4665
LeftHand  -0.488864 1.52473 14.6198
RightShoulder  2.53263 4.70589 24.768
RightArm  10.7847 1.14887 45.6368
RightForeArm  147.104 52.3508 165.268
RightHand  -0.0724278 -4.7284 -9.59965
LeftUpLeg  -13.8206 11.2017 16.065
LeftLeg  26.9878 -8.45629 -4.31743
LeftFoot  17.0928 3.32407 -13.4892
LeftToes  -6.27559e-011 -2.10356e-011 8.24929e-012
172
root  -1.31003 40.1184 21.7865 178.578 67.3363 -179.81
RightUpLeg  -1.31655 -7.55211 -17.6694
RightLeg  25.5475 5.97281 2.88737
RightFoot  4.37961 -2.14772 15.7256
RightToes  -1.74623e-010 0 -2.59999e-017
Spine  -0.630077 2.75876 5.10603
Spine1  18.0258 4.56159 -5.98717
HEad  -21.4191 50.6759 -25.3243
LeftShoulder1  1.76229 -3.99529 -16.8106
LeftArm  12.2826 18.2439 -48.0772
LeftForeArm  42.4436 -71.0129 -29.0646
LeftHand  -0.350554 2.29002 12.9323
RightShoulder  2.41544 4.53565 23.9223
RightArm  3.81271 5.98579 44.3684
RightForeArm  144.357 53.6685 164.403
RightHand  -0.0404216 -5.1213 -9.36763
LeftUpLeg  -12.4766 12.9883 15.9462
LeftLeg  31.4331 -8.90825 -5.47836
LeftFoot  12.4044 2.98118 -14.4569
LeftToes  -6.27559e-011 -2.10356e-011 8.24929e-012
173
root  -1.36893 38.9006 21.6242 172.805 67.8181 175.671
RightUpLeg  -0.987449 -6.99266 -19.9967
RightLeg  30.0099 5.24058 3.02493
RightFoot  -3.75497 -1.22055 18.0224
RightToes  -1.74623e-010 0 -2.59999e-017
Spine  1.2984 2.75126 1.63277
Spine1  16.3834 3.74659 -4.45194
HEad  -19.8141 51.4689 -24.5279
LeftShoulder1  1.81727 -4.02985 -17.4831
LeftArm  12.391 15.6324 -45.4165
LeftForeArm  43.0235 -72.2257 -31.725
LeftHand  -0.282984 2.83995 12.5698
RightShoulder  2.38023 4.50078 23.5955
RightArm  -2.88723 11.4081 41.9107
RightForeArm  141.418 56.5872 162.533
RightHand  -0.0094459 -5.48889 -12.5537
LeftUpLeg  -10.0155 13.5885 14.7172
LeftLeg  34.6957 -8.43415 -5.86461
LeftFoot  0.514748 1.43598 -13.7267
LeftToes  -6.27559e-011 -2.10356e-011 8.24929e-012
174
root  -1.52349 37.4205 21.6025 166.366 67.3259 170.93
RightUpLeg  -0.44233 -6.11355 -22.9037
RightLeg  35.4529 4.5721 3.2411
RightFoot  -14.6809 0.448876 18.7544
RightToes  -1.74623e-010 0 -2.59999e-017
Spine  3.75533 2.83281 -2.41546
Spine1  16.414 2.70591 -1.87036
HEad  -23.4057 51.1513 -27.9721
LeftShoulder1  1.82463 -3.58716 -19.2291
LeftArm  13.6653 7.39111 -41.6398
LeftForeArm  36.2426 -69.676 -27.4136
LeftHand  -0.2867 3.07344 14.0339
RightShoulder  2.42725 4.51901 24.1464
RightArm  -9.43296 17.5868 38.8782
RightForeArm  140.137 59.9831 160.14
RightHand  -0.00440366 -5.46699 -16.5092
LeftUpLeg  -9.68811 13.9053 13.4875
LeftLeg  40.1167 -8.19918 -6.9579
LeftFoot  -9.31214 0.284584 -12.8828
LeftToes  -6.27559e-011 -2.10356e-011 8.24929e-012
175
root  -1.68667 36.4706 21.6652 165.304 66.0207 170.489
RightUpLeg  -0.712662 -6.96543 -24.2867
RightLeg  39.3596 5.45424 4.51642
RightFoot  -20.248 1.32691 18.6611
RightToes  -1.74623e-010 0 -2.59999e-017
Spine  4.14025 2.49644 -2.86668
Spine1  18.3543 2.32203 -1.78765
HEad  -28.75 49.5138 -31.4767
LeftShoulder1  1.74629 -3.03802 -20.2517
LeftArm  13.1666 -2.34436 -40.3983
LeftForeArm  34.2113 -62.1771 -18.1898
LeftHand  -0.129262 4.35185 13.1122
RightShoulder  2.65483 4.78704 25.9956
RightArm  -14.1183 19.4001 37.9843
RightForeArm  141.614 63.1145 157.711
RightHand  0.15131 -6.44668 -18.115
LeftUpLeg  -11.5151 13.3893 13.2076
LeftLeg  44.4843 -7.82924 -7.74266
LeftFoot  -13.4167 -0.141015 -12.1716
LeftToes  -6.27559e-011 -2.10356e-011 8.24929e-012
176
root  -1.59326 36.7275 21.6884 165.727 65.36 171.016
RightUpLeg  0.0640154 -7.8568 -24.4337
RightLeg  38.6184 6.38697 5.18735
RightFoot  -18.3963 1.09166 19.6606
RightToes  -1.74623e-010 0 -2.59999e-017
Spine  3.65324 2.23957 -1.52485
Spine1  18.9609 2.78212 -3.60515
HEad  -29.278 48.8058 -30.7317
LeftShoulder1  1.70655 -2.93392 -20.0523
LeftArm  9.68409 -4.01023 -43.2593
LeftForeArm  43.3318 -54.6196 -12.1199
LeftHand  0.198606 7.61125 11.3087
RightShoulder  3.0179 5.27376 28.4405
RightArm  -12.6192 13.6218 40.9194
RightForeArm  142.806 65.4123 155.588
RightHand  0.726928 -9.61217 -20.1302
LeftUpLeg  -10.2543 11.9582 12.94
LeftLeg  41.7558 -7.27534 -6.51894
LeftFoot  -13.449 -0.144099 -12.2007
LeftToes  -6.27559e-011 -2.10356e-011 8.24929e-012
177
root  -1.25556 38.1459 21.6959 166.755 65.5268 171.796
RightUpLeg  1.84528 -7.43173 -23.0944
RightLeg  33.1855 5.62143 3.73353
RightFoot  -9.99349 -0.322701 20.8386
RightToes  -1.74623e-010 0 -2.59999e-017
Spine  2.8496 2.31644 -0.951682
Spine1  17.7689 3.04067 -3.8472
HEad  -26.0315 50.01 -28.6736
LeftShoulder1  1.73992 -2.93088 -20.6223
LeftArm  7.15651 1.99823 -45.4979
LeftForeArm  44.9275 -51.9611 -10.7737
LeftHand  0.562093 10.4307 13.7205
RightShoulder  3.32767 5.65121 30.4501
RightArm  -6.55189 3.66932 43.4078
RightForeArm  142.376 66.3193 154.557
RightHand  1.33032 -12.5065 -21.8004
LeftUpLeg  -6.4684 10.2985 12.6783
LeftLeg  33.1997 -6.54732 -4.23456
LeftFoot  -6.32 0.658807 -13.6608
LeftToes  -6.27559e-011 -2.10356e-011 8.24929e-012
